<svg width="32" height="32" viewBox="0 0 32 32" fill="none" xmlns="http://www.w3.org/2000/svg">
<path d="M0 8C0 3.58172 3.58172 0 8 0H24C28.4183 0 32 3.58172 32 8V24C32 28.4183 28.4183 32 24 32H8C3.58172 32 0 28.4183 0 24V8Z" fill="#FF4338"/>
<path d="M13.0464 9.6515L4.50696 15.177L8.02321 6.13525L11.0371 15.177L3 9.6515H13.0464Z" fill="#FFDE00"/>
<path d="M15.1246 4.94811L18.1674 6.4384L14.9824 6.98565L17.0471 4.57384L16.8482 7.81666L15.1246 4.94811Z" fill="#FFDE00"/>
<path d="M19.003 7.90178L21.2275 10.4603L18.0785 9.72462L20.9208 8.30534L19.4748 11.2172L19.003 7.90178Z" fill="#FFDE00"/>
<path d="M19.7032 12.7633L20.6896 16.009L18.1141 14.0505L21.2899 13.9154L18.7796 15.9841L19.7032 12.7633Z" fill="#FFDE00"/>
<path d="M17.0497 16.2367L16.7073 19.6081L15.089 16.8102L18.0677 17.9103L14.9567 18.8488L17.0497 16.2367Z" fill="#FFDE00"/>
</svg>
