<svg width="32" height="32" viewBox="0 0 32 32" fill="none" xmlns="http://www.w3.org/2000/svg">
<path d="M0 8C0 3.58172 3.58172 0 8 0H24C28.4182 0 32 3.58172 32 8V24C32 28.4183 28.4182 32 24 32H8.00001C3.58173 32 0 28.4183 0 24V8Z" fill="white"/>
<mask id="mask0_5433_159055" style="mask-type:alpha" maskUnits="userSpaceOnUse" x="0" y="0" width="32" height="32">
<path d="M0 8C0 3.58172 3.58172 0 8 0H24C28.4182 0 32 3.58172 32 8V24C32 28.4183 28.4182 32 24 32H8.00001C3.58173 32 0 28.4183 0 24V8Z" fill="white"/>
</mask>
<g mask="url(#mask0_5433_159055)">
<rect width="11" height="32" fill="#0052B4"/>
<rect x="21" width="11" height="32" fill="#D80027"/>
</g>
</svg>
